<svg width="125" height="38" viewBox="0 0 125 38" fill="none" xmlns="http://www.w3.org/2000/svg">
<path d="M20.9038 24.3245V30.1919L24.6651 34.8048C25.7952 34.2682 26.8646 33.612 27.8549 32.8475L20.9038 24.3245Z" fill="black"/>
<path d="M20.9038 11.7664L26.4275 4.16068C25.358 3.49393 24.2195 2.94487 23.0318 2.52307L20.9038 5.45458V11.7664Z" fill="black"/>
<path d="M17.1949 1.52259C16.5755 1.52225 15.9565 1.55513 15.3406 1.6211V36.3789C16.5733 36.5102 17.8165 36.5102 19.0493 36.3789V1.6211C18.4334 1.55508 17.8144 1.5222 17.1949 1.52259Z" fill="black"/>
<path d="M31.9117 28.4207L23.7477 18.4132L31.0622 8.34233C30.2862 7.34599 29.4054 6.43585 28.435 5.62756L19.0603 18.5446L29.5297 31.3741C30.4257 30.4782 31.2222 29.488 31.9051 28.4207" fill="black"/>
<path d="M31.4125 18.4133L34.1272 14.6673C33.7628 13.2426 33.2191 11.8699 32.5093 10.582L26.7295 18.5424L33.0654 26.308C33.6882 24.9579 34.1348 23.5334 34.3943 22.0694L31.4125 18.4133Z" fill="black"/>
<path d="M20.9038 24.3245V30.1919L24.6651 34.8048C25.7952 34.2682 26.8646 33.612 27.8549 32.8475L20.9038 24.3245Z" fill="#FFC529"/>
<path d="M20.9038 11.7664L26.4275 4.16068C25.358 3.49393 24.2195 2.94487 23.0318 2.52307L20.9038 5.45458V11.7664Z" fill="#FFC529"/>
<path d="M17.1949 1.52259C16.5755 1.52225 15.9565 1.55513 15.3406 1.6211V36.3789C16.5733 36.5102 17.8165 36.5102 19.0493 36.3789V1.6211C18.4334 1.55508 17.8144 1.5222 17.1949 1.52259Z" fill="#2054A5"/>
<path d="M31.9117 28.4207L23.7477 18.4132L31.0622 8.34233C30.2862 7.34599 29.4054 6.43585 28.435 5.62756L19.0603 18.5446L29.5297 31.3741C30.4257 30.4782 31.2222 29.488 31.9051 28.4207" fill="#2054A5"/>
<path d="M31.4125 18.4133L34.1272 14.6673C33.7628 13.2426 33.2191 11.8699 32.5093 10.582L26.7295 18.5424L33.0654 26.308C33.6882 24.9579 34.1348 23.5334 34.3943 22.0694L31.4125 18.4133Z" fill="#FFC529"/>
<path d="M13.4951 24.3245V30.1919L9.7316 34.8048C8.60161 34.267 7.53226 33.6102 6.54175 32.8453L13.4951 24.3245Z" fill="#FFC529"/>
<path d="M13.4954 11.7664L7.97168 4.16068C9.03841 3.4945 10.174 2.94545 11.3586 2.52307L13.4866 5.45458L13.4954 11.7664Z" fill="#FFC529"/>
<path d="M2.48486 28.4206L10.6511 18.4132L3.34746 8.3423C4.11547 7.34344 4.98895 6.43032 5.95276 5.61877L15.3297 18.5358L4.86247 31.374C3.96635 30.4776 3.16924 29.4875 2.48486 28.4206Z" fill="#2054A5"/>
<path d="M2.98625 18.4133L0.267098 14.6695C0.631544 13.2448 1.17519 11.8721 1.88502 10.5842L7.66484 18.5446L1.32892 26.3102C0.705129 24.9605 0.258451 23.5358 0 22.0716L2.98625 18.4133Z" fill="#FFC529"/>
<path d="M58.9565 29L51.3787 18.746H48.3416L57.5432 7.04859H63.1964L54.927 17.5432L54.8669 15.4082L64.9104 29H58.9565ZM44.5227 29V7.04859H49.4542V29H44.5227ZM71.8393 29.5112C69.9348 29.5112 68.4714 28.8998 67.449 27.6769C66.4266 26.434 65.9154 24.5696 65.9154 22.0838V12.5214H70.7267V22.3244C70.7267 23.2064 70.9773 23.9081 71.4784 24.4293C71.9796 24.9505 72.6512 25.2111 73.4932 25.2111C74.3552 25.2111 75.0568 24.9405 75.5981 24.3992C76.1394 23.858 76.41 23.1262 76.41 22.2041V12.5214H81.2213V29H77.4023V22.0537H77.7331C77.7331 23.7176 77.5126 25.1109 77.0715 26.2335C76.6506 27.3361 76.0191 28.158 75.1771 28.6993C74.3351 29.2406 73.2927 29.5112 72.0498 29.5112H71.8393ZM85.6576 29V12.5214H89.4765V19.588H89.2059C89.2059 17.904 89.4164 16.5007 89.8374 15.3781C90.2784 14.2555 90.94 13.4135 91.822 12.8522C92.7041 12.2909 93.7766 12.0102 95.0396 12.0102H95.2501C97.1746 12.0102 98.638 12.6417 99.6403 13.9046C100.663 15.1476 101.174 17.042 101.174 19.588V29H96.3627V19.3173C96.3627 18.4353 96.102 17.7136 95.5808 17.1523C95.0596 16.5909 94.358 16.3103 93.4759 16.3103C92.5738 16.3103 91.8421 16.601 91.2808 17.1823C90.7395 17.7436 90.4689 18.4854 90.4689 19.4075V29H85.6576ZM103.199 35.1644V31.1049H104.251C104.993 31.1049 105.554 30.9045 105.935 30.5035C106.316 30.1226 106.507 29.5713 106.507 28.8496V12.5214H111.168V28.6993C111.168 30.283 110.917 31.546 110.416 32.4882C109.935 33.4304 109.163 34.112 108.1 34.533C107.058 34.9539 105.715 35.1644 104.071 35.1644H103.199ZM104.221 16.0697V12.5214H111.168V16.0697H104.221ZM108.221 10.8375C107.319 10.8375 106.647 10.6069 106.206 10.1458C105.785 9.66472 105.575 9.06331 105.575 8.34162C105.575 7.59988 105.785 6.99847 106.206 6.53739C106.647 6.05627 107.319 5.8157 108.221 5.8157C109.143 5.8157 109.814 6.05627 110.235 6.53739C110.656 6.99847 110.867 7.59988 110.867 8.34162C110.867 9.06331 110.656 9.66472 110.235 10.1458C109.814 10.6069 109.143 10.8375 108.221 10.8375ZM116.246 29V12.5214H121.057V29H116.246ZM114.05 16.0697V12.5214H121.057V16.0697H114.05ZM118.11 10.8976C117.208 10.8976 116.536 10.6671 116.095 10.206C115.674 9.72486 115.464 9.12345 115.464 8.40176C115.464 7.66002 115.674 7.05861 116.095 6.59753C116.536 6.11641 117.208 5.87584 118.11 5.87584C119.012 5.87584 119.674 6.11641 120.095 6.59753C120.536 7.05861 120.756 7.66002 120.756 8.40176C120.756 9.12345 120.536 9.72486 120.095 10.206C119.674 10.6671 119.012 10.8976 118.11 10.8976Z" fill="#2054A5"/>
</svg>
