<svg width="38" height="38" viewBox="0 0 38 38" fill="none" xmlns="http://www.w3.org/2000/svg">
<g clip-path="url(#clip0_327_4568)">
<mask id="mask0_327_4568" style="mask-type:alpha" maskUnits="userSpaceOnUse" x="0" y="0" width="38" height="38">
<path d="M0 0H38V37.9999H0V0Z" fill="white"/>
</mask>
<g mask="url(#mask0_327_4568)">
<path fill-rule="evenodd" clip-rule="evenodd" d="M19 0C29.4936 0 38 8.50639 38 19C38 29.4928 29.4936 38 19 38C8.50639 38 0 29.4928 0 19C0 8.50639 8.50639 0 19 0Z" fill="#2775CA"/>
</g>
<path fill-rule="evenodd" clip-rule="evenodd" d="M15.4381 32.2104C15.4381 32.6573 15.0881 32.9113 14.6559 32.7763C8.9112 30.9437 4.74609 25.557 4.74609 19.201C4.74609 12.8453 8.9112 7.45838 14.6559 5.62575C15.0881 5.49167 15.4381 5.74471 15.4381 6.19164V7.29494C15.4381 7.59246 15.2075 7.94267 14.924 8.03961C10.3789 9.70859 7.12304 14.0749 7.12304 19.1935C7.12304 24.312 10.3789 28.6792 14.924 30.3473C15.2075 30.4518 15.4381 30.7943 15.4381 31.0929V32.2104Z" fill="white"/>
<path fill-rule="evenodd" clip-rule="evenodd" d="M20.185 28.1045C20.185 28.4327 19.9168 28.7009 19.5891 28.7009H18.4042C18.0764 28.7009 17.8083 28.4327 17.8083 28.1045V26.2272C15.2152 25.8772 13.9489 24.4239 13.606 22.4497C13.5462 22.1139 13.8144 21.8086 14.1573 21.8086H15.5134C15.7964 21.8086 16.035 22.0101 16.0946 22.2927C16.3481 23.47 17.026 24.3717 19.1046 24.3717C20.6395 24.3717 21.7277 23.5147 21.7277 22.2338C21.7277 20.9517 21.0866 20.4676 18.8364 20.0947C15.5134 19.6478 13.9413 18.6417 13.9413 16.0339C13.9413 14.0223 15.4616 12.4578 17.8158 12.1223V10.2819C17.8158 9.95392 18.0842 9.68555 18.4117 9.68555H19.5967C19.9244 9.68555 20.1926 9.95392 20.1926 10.2819V12.1745C22.1075 12.5178 23.3219 13.6049 23.7171 15.408C23.7913 15.7513 23.5232 16.0711 23.1732 16.0711H21.9211C21.653 16.0711 21.4295 15.8921 21.3477 15.6315C21.0124 14.4846 20.1926 13.9929 18.7693 13.9929C17.1973 13.9929 16.385 14.7527 16.385 15.818C16.385 16.9431 16.8473 17.509 19.2616 17.8599C22.5246 18.3068 24.2089 19.238 24.2089 22.0178C24.2089 24.1262 22.644 25.8325 20.1926 26.2272V28.1045H20.185Z" fill="white"/>
<path fill-rule="evenodd" clip-rule="evenodd" d="M23.3438 32.7762C22.9119 32.9111 22.5615 32.6572 22.5615 32.2103V31.1078C22.5615 30.7799 22.7628 30.4746 23.0756 30.3623C27.6207 28.6933 30.8766 24.327 30.8766 19.2084C30.8766 14.0899 27.6207 9.72355 23.0756 8.05457C22.7925 7.95007 22.5615 7.60764 22.5615 7.30904V6.2066C22.5615 5.75967 22.9119 5.49907 23.3438 5.63984C29.0885 7.47356 33.2536 12.8603 33.2536 19.216C33.2464 25.5566 29.0885 30.936 23.3438 32.7762Z" fill="white"/>
</g>
<defs>
<clipPath id="clip0_327_4568">
<rect width="38" height="38" fill="white"/>
</clipPath>
</defs>
</svg>
